<?xml version="1.0" encoding="UTF-8"?>
<svg version="1.1" xmlns="http://www.w3.org/2000/svg" width="1050" height="152">
<path d="M0 0 C346.5 0 693 0 1050 0 C1050 50.16 1050 100.32 1050 152 C703.5 152 357 152 0 152 C0 101.84 0 51.68 0 0 Z " fill="#020101" transform="translate(0,0)"/>
<path d="M0 0 C2.76736457 2.51145774 3.68200348 4.39848972 3.9375 8.125 C3.54369146 12.74259817 1.48510803 14.45440007 -1.875 17.5625 C-2.54221536 20.64809301 -2.54221536 20.64809301 -1.875 23.5625 C-1.38 24.036875 -0.885 24.51125 -0.375 25 C1.125 26.5625 1.125 26.5625 1.5 29.4375 C1.15489185 37.54754156 -1.50176944 45.84950067 -3.875 53.5625 C-4.06650635 54.2016333 -4.2580127 54.8407666 -4.45532227 55.49926758 C-6.33864347 61.49736233 -8.8815758 66.94735757 -11.8125 72.5 C-12.45735352 73.77327148 -12.45735352 73.77327148 -13.11523438 75.07226562 C-13.53998047 75.88244141 -13.96472656 76.69261719 -14.40234375 77.52734375 C-14.78124756 78.2555835 -15.16015137 78.98382324 -15.55053711 79.73413086 C-17.1164274 81.89578107 -18.40013657 82.61869872 -20.875 83.5625 C-23.234375 83.7578125 -23.234375 83.7578125 -25.625 83.6875 C-26.42421875 83.66945313 -27.2234375 83.65140625 -28.046875 83.6328125 C-28.65015625 83.60960937 -29.2534375 83.58640625 -29.875 83.5625 C-30.38507183 74.65041171 -29.5421644 67.73176356 -25.875 59.5625 C-25.215 59.5625 -24.555 59.5625 -23.875 59.5625 C-23.545 55.9325 -23.215 52.3025 -22.875 48.5625 C-23.82761719 49.11679688 -24.78023437 49.67109375 -25.76171875 50.2421875 C-27.02854557 50.97413189 -28.29547827 51.70589305 -29.5625 52.4375 C-30.18833984 52.80230469 -30.81417969 53.16710937 -31.45898438 53.54296875 C-38.0088125 57.31512107 -43.20548869 59.44100766 -50.875 58.5625 C-54.28398103 57.2285509 -55.54703925 56.01485965 -57.6875 53.0625 C-60.54854743 44.62993917 -59.09145357 35.71894075 -55.875 27.5625 C-54.15756908 24.30954673 -52.14855713 21.44955667 -49.875 18.5625 C-49.27558594 17.799375 -48.67617188 17.03625 -48.05859375 16.25 C-37.905299 4.10706971 -15.98862755 -10.37255049 0 0 Z " fill="#E71446" transform="translate(774.875,59.4375)"/>
<path d="M0 0 C3.6457422 2.90461596 5.38281165 5.18393491 6.90234375 9.640625 C7.18081665 12.29194641 7.18081665 12.29194641 7.22119141 15.1652832 C7.2410611 16.24602615 7.26093079 17.3267691 7.28140259 18.44026184 C7.2929538 19.5956395 7.304505 20.75101715 7.31640625 21.94140625 C7.3357724 23.13291794 7.35513855 24.32442963 7.37509155 25.55204773 C7.43480271 29.35233432 7.48123956 33.15265134 7.52734375 36.953125 C7.56553125 39.53191415 7.60458343 42.11069065 7.64453125 44.68945312 C7.74049744 51.00639802 7.82556991 57.32341928 7.90234375 63.640625 C4.93234375 63.640625 1.96234375 63.640625 -1.09765625 63.640625 C-1.42765625 61.660625 -1.75765625 59.680625 -2.09765625 57.640625 C-6.60006983 59.51663066 -10.96602191 61.53670168 -15.30078125 63.7734375 C-22.0674797 67.03910501 -32.65937428 67.11792976 -39.8203125 64.734375 C-44.47273724 61.93754163 -48.79035267 57.75804122 -50.91015625 52.703125 C-50.97203125 52.0225 -51.03390625 51.341875 -51.09765625 50.640625 C-51.25234375 49.0628125 -51.25234375 49.0628125 -51.41015625 47.453125 C-50.92680612 41.55625347 -48.99554975 36.7059797 -44.97265625 32.328125 C-36.61146639 27.42047008 -28.12291435 25.72137566 -18.59765625 24.453125 C-16.27435708 24.12903239 -13.95141775 23.8023461 -11.62890625 23.47265625 C-10.10620117 23.26733276 -10.10620117 23.26733276 -8.55273438 23.05786133 C-6.10147536 22.76379883 -6.10147536 22.76379883 -4.09765625 21.640625 C-3.6781204 16.77400911 -3.53414247 14.5739447 -6.09765625 10.328125 C-10.28599236 5.99821133 -15.20283185 4.85116104 -21.03515625 4.203125 C-26.66527383 4.43678601 -32.11390583 6.65687458 -36.09765625 10.640625 C-37.09781812 12.64094873 -37.59161633 14.47188248 -38.09765625 16.640625 C-39.57733949 16.50012982 -41.05640141 16.35307674 -42.53515625 16.203125 C-43.35886719 16.12191406 -44.18257813 16.04070312 -45.03125 15.95703125 C-47.09765625 15.640625 -47.09765625 15.640625 -48.09765625 14.640625 C-48.09765625 9.79638258 -47.29567088 7.40318984 -43.91015625 3.890625 C-32.81683175 -6.18806616 -12.78733994 -8.28676778 0 0 Z " fill="#F6F6F6" transform="translate(442.09765625,62.359375)"/>
<path d="M0 0 C2.875 2.0625 2.875 2.0625 5 5 C6.25382192 13.21949924 2.61867358 20.01456585 -1.1875 27.125 C-3.24192985 31.07272795 -3.68435671 34.58099398 -4 39 C1.54370849 37.57207509 4.36679013 33.62428588 8 29.5 C14.36511263 22.48860302 20.91711718 16.03365158 29 11 C29.99 11 30.98 11 32 11 C32.495 11.99 32.495 11.99 33 13 C33.99 13.33 34.98 13.66 36 14 C35.88269799 20.39052386 35.75786229 26.78086808 35.62768555 33.17114258 C35.58426493 35.34688953 35.54259529 37.52267214 35.50268555 39.69848633 C35.44515498 42.81863168 35.38141177 45.93859633 35.31640625 49.05859375 C35.29133751 50.52733192 35.29133751 50.52733192 35.26576233 52.02574158 C35.24581711 52.92659988 35.22587189 53.82745819 35.20532227 54.75561523 C35.18977798 55.55281479 35.1742337 56.35001434 35.15821838 57.17137146 C35 59 35 59 34 60 C31.73181338 60.12617338 29.45916315 60.17580246 27.1875 60.1875 C25.32158203 60.20876953 25.32158203 60.20876953 23.41796875 60.23046875 C20.21604162 60.01456738 18.54186397 59.89463009 16 58 C13.39582567 53.79198497 11.63356194 48.91010506 11 44 C5.77837757 46.01085207 1.81418879 48.40532354 -2.5 51.9375 C-13.66847826 61 -13.66847826 61 -19.6875 61 C-23.40654314 59.87726999 -24.6473484 59.04431098 -27 56 C-27.49609375 52.86328125 -27.49609375 52.86328125 -27.4375 49.3125 C-27.43621094 48.15363281 -27.43492187 46.99476562 -27.43359375 45.80078125 C-26.99976202 41.99791391 -26.07954945 38.91884063 -24.80004883 35.34057617 C-23.73977723 32.23870745 -22.98587449 29.0920253 -22.21313477 25.90869141 C-19.63098215 15.33354915 -17.21426857 6.55236876 -8 0 C-4.99054157 -1.50472922 -3.20590237 -0.88005163 0 0 Z " fill="#EB1346" transform="translate(814,58)"/>
<path d="M0 0 C3.8832863 2.82275842 5.28185208 5.3085379 6.5 9.9375 C6.37126898 16.24532004 3.00885748 20.11098832 -0.875 24.8125 C-3.5 26.9375 -3.5 26.9375 -9.5 26.9375 C-9.5 20.6675 -9.5 14.3975 -9.5 7.9375 C-11.975 7.4425 -11.975 7.4425 -14.5 6.9375 C-18.99749963 10.28447647 -20.45231679 13.50859607 -21.5 18.9375 C-22.00095023 22.06443772 -22.00095023 22.06443772 -21.5 24.9375 C-18.50689452 28.70953414 -15.6393778 29.80319721 -11.0625 31.0625 C1.6641998 34.63128488 1.6641998 34.63128488 4.5 38.9375 C5.35621521 45.10224952 5.21142944 49.79344205 1.5 54.9375 C-5.88104956 62.62979864 -15.03104834 70.29058293 -25.97265625 71.23828125 C-27.74962891 71.24408203 -27.74962891 71.24408203 -29.5625 71.25 C-31.34333984 71.27513672 -31.34333984 71.27513672 -33.16015625 71.30078125 C-37.72573574 70.80417436 -40.23258776 68.89662278 -43.8125 66.1875 C-45.5 63.9375 -45.5 63.9375 -46.125 60.6875 C-45.27738802 55.60182811 -43.17918569 52.5039754 -39.5 48.9375 C-36.08933646 46.80308475 -32.38120413 45.87814117 -28.5 44.9375 C-28.58378906 46.00871094 -28.66757812 47.07992187 -28.75390625 48.18359375 C-28.85704896 49.58070866 -28.95989843 50.97784524 -29.0625 52.375 C-29.11857422 53.08205078 -29.17464844 53.78910156 -29.23242188 54.51757812 C-29.36190993 56.32177837 -29.43521608 58.12981952 -29.5 59.9375 C-28.46367261 61.16757345 -28.46367261 61.16757345 -26.25 61.3125 C-22.22585938 60.76375355 -20.93464362 59.1160625 -18.5 55.9375 C-17.28590847 51.33109088 -17.28590847 51.33109088 -18.5 46.9375 C-20.32105777 45.99200522 -20.32105777 45.99200522 -22.54296875 45.16796875 C-23.36990234 44.83603516 -24.19683594 44.50410156 -25.04882812 44.16210938 C-26.78703884 43.47891923 -28.52659608 42.79914361 -30.26757812 42.12304688 C-35.47136221 40.02623983 -39.60050707 38.03196757 -43.5 33.9375 C-44.805752 29.34892517 -43.75578743 24.81018651 -42.4375 20.3125 C-34.66018411 6.76491748 -16.29893011 -9.03170072 0 0 Z " fill="#DC1743" transform="translate(960.5,60.0625)"/>
<path d="M0 0 C2.91366558 1.53629639 3.63789405 2.30059107 5.5625 5.1875 C6.94906246 14.57346123 5.17960901 21.61761281 -0.4375 29.1875 C-5.81528798 35.42803472 -11.86734139 42.17924605 -20.4375 43.1875 C-20.4375 44.5075 -20.4375 45.8275 -20.4375 47.1875 C-14.64855695 45.71988064 -9.66615504 43.40393545 -4.42382812 40.578125 C-1.05988892 38.82045754 0.6652139 38.1875 4.5625 38.1875 C4.828125 40.47265625 4.828125 40.47265625 4.5625 43.1875 C-1.15513387 49.04427983 -9.9525104 53.07729884 -17.4375 56.1875 C-18.4275 56.1875 -19.4175 56.1875 -20.4375 56.1875 C-20.4375 56.8475 -20.4375 57.5075 -20.4375 58.1875 C-25.47542122 59.86680707 -30.14454808 60.07750504 -35.07421875 58.1640625 C-39.55617224 55.7954973 -42.76018903 53.74380215 -44.5625 48.875 C-47.08666466 38.01564411 -44.3831524 29.36830504 -38.59765625 19.953125 C-38.02337891 19.07914063 -38.02337891 19.07914063 -37.4375 18.1875 C-37.00308594 17.50171875 -36.56867187 16.8159375 -36.12109375 16.109375 C-28.40074428 5.04160584 -13.84114693 -6.61748265 0 0 Z " fill="#EA1346" transform="translate(902.4375,59.8125)"/>
<path d="M0 0 C6.30619385 3.42474835 10.77890659 7.98529878 12.875 14.9375 C13.18352984 18.0457347 13.19964618 21.12843114 13.1875 24.25 C13.20361328 25.06662109 13.21972656 25.88324219 13.23632812 26.72460938 C13.24286002 34.92213899 11.15121961 41.4032544 5.453125 47.4609375 C0.19691314 52.3788783 -5.13939246 52.46610111 -12.0625 52.28515625 C-17.66822171 51.64879243 -20.13594843 49.01855637 -23.8125 45 C-27.9196769 39.56076572 -29.59463407 36.13512146 -29.375 29.25 C-29.35969238 28.54101562 -29.34438477 27.83203125 -29.32861328 27.1015625 C-29.29227965 25.68937395 -29.24772999 24.2773691 -29.19433594 22.86572266 C-29.13543353 21.22765496 -29.114418 19.58829472 -29.1015625 17.94921875 C-28.84092855 11.50354079 -26.66940865 7.49242812 -22.125 2.9375 C-15.22905159 -2.78149568 -8.05628131 -3.70613243 0 0 Z " fill="#050405" transform="translate(290.125,68.0625)"/>
<path d="M0 0 C5.24408261 3.76469931 8.27265506 8.07239703 9.85546875 14.33203125 C10.85012304 24.00411559 11.63743456 35.10393713 6.28515625 43.5859375 C2.66098016 48.01218535 -1.43929111 51.03144901 -7.16796875 51.66796875 C-18.44207094 51.79936854 -18.44207094 51.79936854 -23.14453125 47.33203125 C-29.77955281 40.23410121 -31.70997146 34.57253993 -31.64453125 25.08203125 C-31.63953613 24.14488281 -31.63454102 23.20773438 -31.62939453 22.2421875 C-31.43033171 14.36753677 -30.07754862 8.61510776 -24.65234375 2.70703125 C-17.47594048 -3.8372536 -8.39149927 -4.74010837 0 0 Z " fill="#040303" transform="translate(543.14453125,68.66796875)"/>
<path d="M0 0 C0.495 0.495 0.495 0.495 1 1 C0.63790985 4.62090151 0.03122298 7.90082111 -1.0625 11.375 C-2.16197032 15.62628522 -2.89496987 19.64679702 -2 24 C0.33749166 26.15602694 0.33749166 26.15602694 3 27 C2.8125 30.3125 2.8125 30.3125 2 34 C-0.1875 35.6875 -0.1875 35.6875 -3 37 C-7.83109931 39.8020376 -9.97902964 41.77375887 -12 47 C-12.39242083 50.21963452 -12.37479372 53.3857266 -12.3125 56.625 C-12.31572266 57.470625 -12.31894531 58.31625 -12.32226562 59.1875 C-12.27924565 64.86958762 -12.27924565 64.86958762 -10 70 C-6.96798075 72.24407254 -6.96798075 72.24407254 -4 74 C-5.50635465 78.21779303 -8.24012422 79.7747674 -12 82 C-16.81112917 83.60370972 -21.54060051 84.04566305 -26.296875 82.0234375 C-30.00162813 79.81951502 -32.47596682 78.15714 -34 74 C-34.73507953 66.08855087 -34.45412797 57.28850554 -31.4375 49.875 C-29.92180843 46.13430307 -29.52170427 43.06551367 -30 39 C-31.45833358 37.37485532 -31.45833358 37.37485532 -33 36 C-33.39453125 33.6953125 -33.39453125 33.6953125 -33 31 C-30.91796875 28.71875 -30.91796875 28.71875 -28.1875 26.5 C-22.96482855 22.21936886 -20.38186474 18.42792634 -18.25 12.0625 C-14.91528831 3.4025898 -9.08559728 -0.33038536 0 0 Z " fill="#EA1445" transform="translate(1009,34)"/>
<path d="M0 0 C6.00563907 4.89709312 10.93541203 10.76925204 12.8125 18.375 C14.04989699 31.29676138 13.95264724 44.01972757 5.8125 54.6875 C-0.46438061 61.11004661 -7.68544066 64.57535316 -16.64160156 64.98388672 C-23.78917148 65.03545423 -30.14109642 64.45696022 -36.1875 60.375 C-36.81914063 59.9625 -37.45078125 59.55 -38.1015625 59.125 C-44.15158317 54.59392069 -47.65746831 47.70988421 -49.1875 40.375 C-49.40872756 36.75281696 -49.37263475 33.12828609 -49.375 29.5 C-49.38724609 28.51902344 -49.39949219 27.53804687 -49.41210938 26.52734375 C-49.43123102 17.08125023 -47.12076317 9.61438451 -40.55078125 2.63671875 C-29.27991427 -7.57038101 -12.57325601 -8.7381702 0 0 Z M-34 9.1875 C-38.74400722 16.10019623 -39.7110495 21.50767624 -39.6875 29.75 C-39.71585937 30.64460938 -39.74421875 31.53921875 -39.7734375 32.4609375 C-39.79538345 40.01034541 -37.6626172 45.87579959 -32.28515625 51.29052734 C-26.73090812 56.22037832 -22.98583569 56.78468142 -15.52734375 56.71875 C-10.7306885 56.22505917 -7.67067493 54.660365 -4.1875 51.375 C1.2808367 44.46762732 2.17550331 38.67863913 2.1875 30.125 C2.22423828 28.76955078 2.22423828 28.76955078 2.26171875 27.38671875 C2.29240948 20.27669974 1.03099773 13.85809365 -3.92773438 8.49169922 C-9.11107313 3.74527595 -13.81712902 1.87533122 -20.84765625 2.0625 C-26.36891996 2.79989749 -30.11849256 5.30599256 -34 9.1875 Z " fill="#F7F7F7" transform="translate(551.1875,63.625)"/>
<path d="M0 0 C7.14503389 5.22020812 13.19706962 11.06612271 15 20 C15.27026764 23.55895885 15.27712509 27.11935064 15.3125 30.6875 C15.34150391 31.64333984 15.37050781 32.59917969 15.40039062 33.58398438 C15.48220816 42.81677904 12.50919964 49.90079969 6.84765625 57.140625 C-0.32264627 64.35640513 -8.41723188 66.38636889 -18.2355957 66.453125 C-26.35053544 66.27483119 -33.178699 63.90503468 -38.9609375 57.99609375 C-40.46797693 56.05899673 -41.75709602 54.11381206 -43 52 C-43.598125 51.0925 -44.19625 50.185 -44.8125 49.25 C-47.79623583 43.5966058 -47.22008034 37.48824914 -47.25 31.25 C-47.270625 30.19039062 -47.29125 29.13078125 -47.3125 28.0390625 C-47.36446747 17.5676173 -44.97294677 10.96926368 -37.6484375 3.27734375 C-26.90119647 -5.96401543 -12.25815461 -6.69277347 0 0 Z M-33.87109375 13.4140625 C-36.82522584 17.56415811 -36.67168583 22.04488799 -37 27 C-37.09023438 28.28777344 -37.18046875 29.57554688 -37.2734375 30.90234375 C-37.63468596 38.29962764 -37.58688886 44.20688892 -32.7265625 50.23046875 C-27.71885275 55.36280476 -24.21219698 58.15369243 -16.875 58.375 C-10.59685479 58.29885932 -6.52015897 57.45852044 -2 53 C3.97174851 45.64008188 5.20559687 40.00068394 5.3125 30.75 C5.34150391 29.92886719 5.37050781 29.10773438 5.40039062 28.26171875 C5.47129585 21.37845742 3.78371263 16.30281988 -0.67578125 11.01171875 C-6.20869399 6.5352094 -11.54458881 3.31215209 -18.95703125 3.65625 C-25.54100772 4.76407013 -29.79343454 8.32532158 -33.87109375 13.4140625 Z " fill="#F4F4F4" transform="translate(298,62)"/>
<path d="M0 0 C3.13538332 2.46086823 5.24258315 5.14855632 7.125 8.6875 C7.125 10.0075 7.125 11.3275 7.125 12.6875 C4.08505717 13.4160266 1.25528795 13.9053978 -1.875 13.6875 C-4.375 11 -4.375 11 -5.515625 9.32421875 C-8.63703955 5.56596388 -13.51499168 4.07425722 -18.2109375 3.3046875 C-23.8630641 3.01532948 -27.28662353 4.4374 -31.875 7.6875 C-33.31235246 10.56220493 -33.25672649 12.50644588 -32.875 15.6875 C-27.72763731 21.14682406 -21.28994369 22.65460318 -14.1875 24 C-5.89014472 25.70020514 1.60292982 28.40557097 7.875 34.25 C10.08725013 40.33368785 10.74942032 47.15494212 7.984375 53.16796875 C3.68255066 59.20184341 -1.74422482 62.75317478 -8.875 64.6875 C-12.00429885 65.01445235 -15.10549972 65.05755582 -18.25 65.0625 C-19.06210937 65.08699219 -19.87421875 65.11148438 -20.7109375 65.13671875 C-26.69040335 65.16546618 -30.79185086 63.78616755 -35.875 60.6875 C-36.761875 60.15125 -37.64875 59.615 -38.5625 59.0625 C-42.02342552 55.50803595 -45.875 49.81981115 -45.875 44.6875 C-42.33148927 43.06760938 -39.74780581 42.58335732 -35.875 42.6875 C-35.56046875 43.30238281 -35.2459375 43.91726562 -34.921875 44.55078125 C-34.49390625 45.35902344 -34.0659375 46.16726562 -33.625 47 C-32.99851562 48.20076172 -32.99851562 48.20076172 -32.359375 49.42578125 C-30.38570003 52.43303864 -28.3910915 54.14648809 -24.9921875 55.359375 C-18.10640475 56.42654428 -10.73058635 56.89151072 -4.875 52.6875 C-2.21555716 50.20535335 -1.89782976 48.82955185 -1.3125 45.1875 C-1.50383224 41.51009696 -1.50383224 41.51009696 -4.46875 39.58984375 C-7.99712239 37.61929632 -11.01101318 36.6612809 -14.9375 35.75 C-36.43838593 30.41891445 -36.43838593 30.41891445 -42.6875 20.9375 C-44.23168817 16.7113008 -44.58691821 13.13498902 -43.875 8.6875 C-40.6181716 2.1738432 -35.93084611 -1.84216134 -29.125 -4.125 C-19.05949698 -6.7619207 -8.8163474 -5.82743645 0 0 Z " fill="#F5F5F5" transform="translate(664.875,63.3125)"/>
<path d="M0 0 C4.91402255 3.22839854 7.83971258 6.46428663 10 12 C10.41190834 16.06255025 10.34895302 20.09999093 10.29296875 24.1796875 C10.28872391 25.3475882 10.28447906 26.51548889 10.28010559 27.71878052 C10.263354 31.43775786 10.22570698 35.15618727 10.1875 38.875 C10.17244867 41.40103382 10.15876105 43.92707617 10.14648438 46.453125 C10.11346192 52.63560265 10.06329691 58.81776217 10 65 C8.52093108 65.02689216 7.04172517 65.04634621 5.5625 65.0625 C4.73878906 65.07410156 3.91507813 65.08570312 3.06640625 65.09765625 C1 65 1 65 0 64 C-0.10671672 62.5587344 -0.14619147 61.11240144 -0.15771484 59.66723633 C-0.16797699 58.74570267 -0.17823914 57.82416901 -0.18881226 56.87471008 C-0.19611359 55.87062607 -0.20341492 54.86654205 -0.2109375 53.83203125 C-0.23901705 51.72069552 -0.26768158 49.6093675 -0.296875 47.49804688 C-0.33808135 44.15812483 -0.37495378 40.81834509 -0.40136719 37.47827148 C-0.42902519 34.26255187 -0.47491203 31.04749471 -0.5234375 27.83203125 C-0.52669037 26.83806839 -0.52994324 25.84410553 -0.53329468 24.82002258 C-0.6277577 19.47551166 -0.97236197 15.60053735 -4 11 C-7.55390089 7.62379415 -10.53174086 6.66920056 -15.3125 6.375 C-21.28326156 6.61122385 -25.88876151 8.62324403 -30 13 C-33.14538566 18.88675906 -33.46721248 23.92312589 -33.51171875 30.52734375 C-33.52966995 31.51626114 -33.54762115 32.50517853 -33.56611633 33.52406311 C-33.62000805 36.66183291 -33.65404739 39.79945242 -33.6875 42.9375 C-33.7206917 45.07358852 -33.75518307 47.20965727 -33.79101562 49.34570312 C-33.8757225 54.5636933 -33.94263449 59.78164052 -34 65 C-37.63 65 -41.26 65 -45 65 C-45.02312659 56.54232666 -45.0409167 48.08466644 -45.05181217 39.62696934 C-45.05704031 35.70011342 -45.06413669 31.77327906 -45.07543945 27.84643555 C-45.0862708 24.05985743 -45.09227736 20.2733001 -45.09487724 16.48670769 C-45.09673105 15.03895681 -45.10035081 13.59120712 -45.10573006 12.14346504 C-45.11294367 10.12242865 -45.11340808 8.10137152 -45.11352539 6.08032227 C-45.115746 4.92782486 -45.11796661 3.77532745 -45.12025452 2.58790588 C-45 0 -45 0 -44 -1 C-42.48071962 -1.07179964 -40.95832518 -1.08392007 -39.4375 -1.0625 C-38.61121094 -1.05347656 -37.78492187 -1.04445312 -36.93359375 -1.03515625 C-36.29550781 -1.02355469 -35.65742187 -1.01195312 -35 -1 C-35 1.31 -35 3.62 -35 6 C-32.27599995 4.39764703 -29.6507222 2.7547624 -27.0625 0.9375 C-18.47568963 -4.49497187 -9.04957872 -4.40919255 0 0 Z " fill="#F4F5F4" transform="translate(151,61)"/>
<path d="M0 0 C4.48563258 3.13252854 6.40554343 6.21725551 7.6293335 11.60864258 C8.35559511 16.29412423 8.24171004 20.98846455 8.1953125 25.71875 C8.1924826 26.81723267 8.18965271 27.91571533 8.18673706 29.04748535 C8.17560486 32.531771 8.15051298 36.01579296 8.125 39.5 C8.11496121 41.8723921 8.10583694 44.24478826 8.09765625 46.6171875 C8.07568829 52.41155885 8.04120648 58.20573482 8 64 C4.7 64 1.4 64 -2 64 C-2 47.83 -2 31.66 -2 15 C-2.66 15 -3.32 15 -4 15 C-4.5775 13.88625 -5.155 12.7725 -5.75 11.625 C-7.36313722 8.51394965 -8.67756668 7.20009602 -12 6 C-18.16171954 5.28330452 -23.79706477 5.31987508 -29 9 C-34.9476624 15.27808809 -35.31440466 21.06247213 -35.4140625 29.33203125 C-35.43342865 30.32377853 -35.4527948 31.31552582 -35.4727478 32.33732605 C-35.53238453 35.4956307 -35.57886555 38.6539721 -35.625 41.8125 C-35.6631944 43.95769792 -35.70224698 46.10288075 -35.7421875 48.24804688 C-35.83807313 53.49857488 -35.92216312 58.74917467 -36 64 C-39.3 64 -42.6 64 -46 64 C-46.02312659 55.54232666 -46.0409167 47.08466644 -46.05181217 38.62696934 C-46.05704031 34.70011342 -46.06413669 30.77327906 -46.07543945 26.84643555 C-46.0862708 23.05985743 -46.09227736 19.2733001 -46.09487724 15.48670769 C-46.09673105 14.03895681 -46.10035081 12.59120712 -46.10573006 11.14346504 C-46.11294367 9.12242865 -46.11340808 7.10137152 -46.11352539 5.08032227 C-46.115746 3.92782486 -46.11796661 2.77532745 -46.12025452 1.58790588 C-46 -1 -46 -1 -45 -2 C-42.66702567 -2.04092937 -40.33294775 -2.04241723 -38 -2 C-37.67 0.31 -37.34 2.62 -37 5 C-36.27554688 4.51789063 -35.55109375 4.03578125 -34.8046875 3.5390625 C-33.83789062 2.90742187 -32.87109375 2.27578125 -31.875 1.625 C-30.92367187 0.99851562 -29.97234375 0.37203125 -28.9921875 -0.2734375 C-19.34821259 -5.83823765 -9.62254791 -5.34217315 0 0 Z " fill="#F6F6F7" transform="translate(227,62)"/>
<path d="M0 0 C1.45823212 -0.0270043 2.91660675 -0.04639787 4.375 -0.0625 C5.18710937 -0.07410156 5.99921875 -0.08570313 6.8359375 -0.09765625 C9 0 9 0 11 1 C11.91381836 3.18969727 11.91381836 3.18969727 12.83984375 6.06640625 C13.18080078 7.10990234 13.52175781 8.15339844 13.87304688 9.22851562 C14.22431641 10.32873047 14.57558594 11.42894531 14.9375 12.5625 C15.63272451 14.71008591 16.32931275 16.85723089 17.02734375 19.00390625 C17.36386963 20.03894287 17.70039551 21.07397949 18.04711914 22.14038086 C19.05268498 25.15810893 20.1354591 28.13332521 21.27416992 31.1027832 C22.63244674 34.65312602 23.90803921 38.23316895 25.1875 41.8125 C25.59645508 42.93688477 25.59645508 42.93688477 26.01367188 44.08398438 C27.115449 47.17393076 28 49.69373301 28 53 C28.66 53 29.32 53 30 53 C30.13881592 52.41605469 30.27763184 51.83210938 30.4206543 51.23046875 C31.32588183 47.74536183 32.59689097 44.38623277 33.8125 41 C35.60507738 35.97673832 37.36101074 30.95102581 39 25.875 C40.54739194 21.180811 42.29193589 16.5881949 44.125 12 C44.37894531 11.36433105 44.63289063 10.72866211 44.89453125 10.07373047 C48.45805797 1.27097102 48.45805797 1.27097102 51 0 C53.6723621 -0.13415472 56.32250488 -0.04318541 59 0 C59 4.02289374 58.46688242 5.6657616 56.875 9.25 C54.75416972 14.16455855 52.79472331 19.10707306 50.9375 24.125 C49.04847391 29.21550328 47.11185672 34.27802711 45.05859375 39.3046875 C44.20108071 41.4880233 43.38936076 43.67534782 42.59765625 45.8828125 C37.01008953 61.41704053 37.01008953 61.41704053 33 66 C29.90292022 66.89620222 28.3046424 66.58630752 25 66 C22.1876994 63.85919434 21.43219538 61.80284301 20.5625 58.4375 C19.4246289 54.079239 17.83679376 50.00840509 16.14379883 45.84350586 C14.925999 42.8160321 13.7571747 39.77291056 12.59765625 36.72265625 C12.18193359 35.63146484 11.76621094 34.54027344 11.33789062 33.41601562 C10.48942131 31.18504807 9.64305743 28.95327861 8.79882812 26.72070312 C6.42714091 20.50739582 3.90064735 14.4791444 0.91577148 8.53295898 C-0.15823422 5.56233537 -0.15942294 3.13512774 0 0 Z " fill="#F1F1F1" transform="translate(323,60)"/>
<path d="M0 0 C0.33 7.26 0.66 14.52 1 22 C3.97 22.33 6.94 22.66 10 23 C11 24 11 24 11.0625 27.5625 C11.041875 28.696875 11.02125 29.83125 11 31 C7.37 31 3.74 31 0 31 C0.11828015 37.19316379 0.2425311 43.38616814 0.37231445 49.57910156 C0.41562358 51.68583927 0.45730153 53.79261117 0.49731445 55.89941406 C0.55511427 58.92783919 0.61878096 61.95609285 0.68359375 64.984375 C0.70030624 65.92617615 0.71701874 66.86797729 0.73423767 67.83831787 C0.75418289 68.71892883 0.77412811 69.59953979 0.79467773 70.50683594 C0.81022202 71.27960876 0.8257663 72.05238159 0.84178162 72.84857178 C1.00253523 75.0344737 1.28731413 76.92576951 2 79 C4.29629994 80.14814997 6.07698086 80.30769809 8.625 80.5625 C9.85089844 80.68818359 9.85089844 80.68818359 11.1015625 80.81640625 C11.72804688 80.87699219 12.35453125 80.93757813 13 81 C13.29296875 87.0546875 13.29296875 87.0546875 13 89 C9.25372773 91.49751485 6.33440187 91.50902228 2 91 C-2.42201815 89.85121948 -6.00082728 88.56206731 -9 85 C-9.99293809 82.02118573 -10.12119785 80.08512761 -10.11352539 76.9777832 C-10.11341209 75.44653557 -10.11341209 75.44653557 -10.11329651 73.88435364 C-10.10813522 72.78427475 -10.10297394 71.68419586 -10.09765625 70.55078125 C-10.0962413 69.4230278 -10.09482635 68.29527435 -10.09336853 67.13334656 C-10.0877647 63.52637088 -10.07521153 59.91945696 -10.0625 56.3125 C-10.05748549 53.86914152 -10.0529225 51.42578207 -10.04882812 48.98242188 C-10.03779403 42.98826013 -10.02105215 36.99413448 -10 31 C-12.64 31 -15.28 31 -18 31 C-18 28.69 -18 26.38 -18 24 C-15.29120665 22.64560332 -12.99066732 22.93498549 -10 23 C-10.08121094 21.75863281 -10.16242188 20.51726563 -10.24609375 19.23828125 C-10.31176788 17.59642798 -10.37546627 15.95449484 -10.4375 14.3125 C-10.49615234 13.49587891 -10.55480469 12.67925781 -10.61523438 11.83789062 C-10.7836124 5.89655161 -10.7836124 5.89655161 -8.51611328 3.30224609 C-5.51502558 1.06386576 -3.80850328 0 0 0 Z " fill="#F9F8F8" transform="translate(481,37)"/>
<path d="M0 0 C0.66 0.474375 1.32 0.94875 2 1.4375 C0.80100302 4.5206351 -0.47700477 7.50029492 -2 10.4375 C-2.495 10.2725 -2.99 10.1075 -3.5 9.9375 C-7.72162801 9.0931744 -11.86815877 8.31080321 -15.78125 10.37890625 C-19.16802766 13.02690153 -20.82689667 15.37616974 -22 19.4375 C-22.32803104 22.9523183 -22.37248967 26.45986474 -22.4140625 29.98828125 C-22.43342865 31.00222458 -22.4527948 32.01616791 -22.4727478 33.06083679 C-22.53239426 36.29047303 -22.57886951 39.5201452 -22.625 42.75 C-22.66319349 44.94337468 -22.70224602 47.13673458 -22.7421875 49.33007812 C-22.83808368 54.69909833 -22.92217014 60.06818874 -23 65.4375 C-26.3 65.4375 -29.6 65.4375 -33 65.4375 C-34.37034603 62.69680794 -34.12719926 60.51070667 -34.12939453 57.44311523 C-34.13254669 56.18518661 -34.13569885 54.927258 -34.13894653 53.63121033 C-34.13715689 52.25283778 -34.13510597 50.87446555 -34.1328125 49.49609375 C-34.1334858 48.0888721 -34.13445604 46.68165057 -34.13571167 45.27442932 C-34.13718695 42.32462456 -34.1350392 39.37485007 -34.13037109 36.42504883 C-34.12466866 32.63619045 -34.12795711 28.84740282 -34.13394356 25.05854702 C-34.13754928 22.15301475 -34.13641063 19.24749939 -34.13381577 16.34196663 C-34.1331468 14.94445856 -34.13397387 13.54694897 -34.13629532 12.14944267 C-34.13882255 10.20045881 -34.13429062 8.25146959 -34.12939453 6.30249023 C-34.12859894 5.19155502 -34.12780334 4.08061981 -34.12698364 2.9360199 C-34 0.4375 -34 0.4375 -33 -0.5625 C-31.48071962 -0.63429964 -29.95832518 -0.64642007 -28.4375 -0.625 C-27.61121094 -0.61597656 -26.78492188 -0.60695312 -25.93359375 -0.59765625 C-25.29550781 -0.58605469 -24.65742187 -0.57445312 -24 -0.5625 C-24 1.7475 -24 4.0575 -24 6.4375 C-20.73408995 5.6482551 -20.73408995 5.6482551 -18.625 2.5 C-13.52818552 -3.79161669 -6.83955849 -3.56227005 0 0 Z " fill="#EFEFF0" transform="translate(613,60.5625)"/>
<path d="M0 0 C3.67197661 1.72290207 5.41425744 2.74247991 7.71875 6.19921875 C9.10531246 15.58517998 7.33585901 22.62933156 1.71875 30.19921875 C-3.65903798 36.43975347 -9.71109139 43.1909648 -18.28125 44.19921875 C-18.61125 45.18921875 -18.94125 46.17921875 -19.28125 47.19921875 C-22.4073624 40.58580964 -22.37385321 32.55068472 -20.60546875 25.5078125 C-19.78125 23.32421875 -19.78125 23.32421875 -18.28125 20.19921875 C-18.94125 20.19921875 -19.60125 20.19921875 -20.28125 20.19921875 C-20.13920259 18.61554128 -19.99244847 17.03228557 -19.84375 15.44921875 C-19.76253906 14.5675 -19.68132813 13.68578125 -19.59765625 12.77734375 C-19.31593177 10.48181095 -19.02412514 8.38874549 -18.28125 6.19921875 C-16.21875 4.94921875 -16.21875 4.94921875 -14.28125 4.19921875 C-15.60125 3.86921875 -16.92125 3.53921875 -18.28125 3.19921875 C-12.27082409 -0.89298613 -7.09031737 -2.48889565 0 0 Z " fill="#D81545" transform="translate(900.28125,58.80078125)"/>
<path d="M0 0 C0.75746993 7.37831823 0.08113946 12.59403527 -4.07421875 18.83203125 C-7.16713361 22.31391309 -10.76848921 24.18045036 -15 26 C-15.66 26.33 -16.32 26.66 -17 27 C-22.96308973 27.55769904 -27.92876868 27.50156448 -33 24 C-36.05644768 21.18485082 -37.26898845 19.08890442 -37.5 15 C-37.31992044 12.18758099 -36.8970822 10.78948632 -35.625 8.1875 C-31.72855565 4.94046304 -27.89734895 4.11955808 -23 3 C-22.25540527 2.82549316 -21.51081055 2.65098633 -20.74365234 2.47119141 C-18.20734356 1.88189755 -15.66744985 1.31218235 -13.125 0.75 C-12.29218506 0.56236084 -11.45937012 0.37472168 -10.60131836 0.18139648 C-9.80733643 0.01325439 -9.01335449 -0.1548877 -8.1953125 -0.328125 C-7.48391113 -0.4818457 -6.77250977 -0.63556641 -6.03955078 -0.79394531 C-3.78237533 -1.0219865 -2.15285702 -0.67144459 0 0 Z " fill="#090808" transform="translate(439,94)"/>
<path d="M0 0 C3.63 0 7.26 0 11 0 C11 21.78 11 43.56 11 66 C7.37 66 3.74 66 0 66 C0 44.22 0 22.44 0 0 Z " fill="#EFEFEF" transform="translate(78,60)"/>
<path d="M0 0 C0.25 6.625 0.25 6.625 -2 10 C-1.88801216 11.52583437 -1.71398272 13.04759961 -1.5 14.5625 C-1.40305294 18.25725999 -1.7344898 19.65184071 -4.0078125 22.6328125 C-5.76669878 24.34969553 -7.56507441 26.02694673 -9.3984375 27.6640625 C-12.14911802 30.13389276 -14.29228019 32.74097105 -16.453125 35.72265625 C-18.75303676 37.62182581 -21.0975706 37.67528069 -24 38 C-25.05062295 24.84775715 -21.6408382 15.83575735 -13.4296875 5.625 C-9.12068987 0.72734149 -6.60015313 -0.51765907 0 0 Z " fill="#130103" transform="translate(761,68)"/>
<path d="M0 0 C1 1 1 1 1.1328125 2.96875 C1.11504644 8.72495436 0.73672983 14.29034384 0 20 C1.65 20 3.3 20 5 20 C4.34 21.32 3.68 22.64 3 24 C4.32 24.66 5.64 25.32 7 26 C3.23643503 27.88178249 -1.03781912 25.46564773 -4.83984375 24.2109375 C-8.84022823 22.67803368 -10.92392784 21.83274861 -13 18 C-13.47644102 12.35417388 -13.24843368 6.84564829 -9.5625 2.3125 C-5.8854438 -1.00581901 -4.71483057 -1.20893092 0 0 Z " fill="#160004" transform="translate(951,67)"/>
<path d="M0 0 C0.92050977 13.21954301 -3.61578171 22.27628973 -11 33 C-11.99 32.67 -12.98 32.34 -14 32 C-14.31661521 24.85856804 -14.30931426 19.49606133 -11 13 C-10.5040275 11.442753 -10.02557871 9.87984331 -9.5625 8.3125 C-7.75678468 2.80130638 -6.15183555 0 0 0 Z " fill="#1D0005" transform="translate(893,67)"/>
<path d="M0 0 C0.265625 2.28515625 0.265625 2.28515625 0 5 C-5.71763387 10.85677983 -14.5150104 14.88979884 -22 18 C-22.99 18 -23.98 18 -25 18 C-25 18.66 -25 19.32 -25 20 C-29.00952575 21.33650858 -32.82016197 21.20225023 -37 21 C-37.66 20.34 -38.32 19.68 -39 19 C-36.36 19.33 -33.72 19.66 -31 20 C-30.979375 19.401875 -30.95875 18.80375 -30.9375 18.1875 C-30 16 -30 16 -26.5625 14.375 C-25.386875 13.92125 -24.21125 13.4675 -23 13 C-22.34 12.34 -21.68 11.68 -21 11 C-22.32 10.34 -23.64 9.68 -25 9 C-23.99324219 8.74476562 -22.98648438 8.48953125 -21.94921875 8.2265625 C-17.31530009 6.90391871 -13.20667891 4.66555206 -8.98632812 2.390625 C-5.62238892 0.63295754 -3.8972861 0 0 0 Z " fill="#DA1D44" transform="translate(907,98)"/>
<path d="M0 0 C1.89492188 0.01353516 1.89492188 0.01353516 3.828125 0.02734375 C4.79234375 0.03894531 5.7565625 0.05054688 6.75 0.0625 C7.245 1.0525 7.245 1.0525 7.75 2.0625 C6.96496094 2.09988281 6.17992187 2.13726562 5.37109375 2.17578125 C-0.91260085 2.56899404 -5.59751426 3.35401725 -11.25 6.0625 C-12.57 6.0625 -13.89 6.0625 -15.25 6.0625 C-17.05996694 7.21013227 -17.05996694 7.21013227 -18.6875 8.8125 C-19.28820312 9.35648438 -19.88890625 9.90046875 -20.5078125 10.4609375 C-21.08273437 10.98945312 -21.65765625 11.51796875 -22.25 12.0625 C-26.98684211 16.0625 -26.98684211 16.0625 -29.25 16.0625 C-29.25 16.7225 -29.25 17.3825 -29.25 18.0625 C-30.013125 18.475 -30.77625 18.8875 -31.5625 19.3125 C-34.84301885 21.44865181 -35.74933644 23.50829683 -37.25 27.0625 C-37.91 27.0625 -38.57 27.0625 -39.25 27.0625 C-39.25 27.7225 -39.25 28.3825 -39.25 29.0625 C-40.75 30.6875 -40.75 30.6875 -42.25 32.0625 C-41.92 32.7225 -41.59 33.3825 -41.25 34.0625 C-42.57 36.0425 -43.89 38.0225 -45.25 40.0625 C-46.69245096 35.72533452 -45.68921653 33.15128429 -43.93359375 29.05078125 C-36.30574555 15.51179315 -24.18615804 5.34655234 -9.4453125 0.46484375 C-6.28360664 -0.1146148 -3.21042212 -0.02972613 0 0 Z " fill="#CC1C3E" transform="translate(763.25,56.9375)"/>
<path d="M0 0 C1.79585197 0.5916101 3.58659629 1.19874192 5.375 1.8125 C6.37273438 2.14894531 7.37046875 2.48539062 8.3984375 2.83203125 C11 4 11 4 13 7 C12.91694722 11.48485012 12.4743244 13.45452694 9.5 16.875 C8.675 17.57625 7.85 18.2775 7 19 C6.67 19.33 6.34 19.66 6 20 C3.5625 20.1875 3.5625 20.1875 1 20 C0.34 19.34 -0.32 18.68 -1 18 C-0.98240942 15.46988756 -0.86112431 13.0725014 -0.625 10.5625 C-0.51237243 9.20968924 -0.40037031 7.85682623 -0.2890625 6.50390625 C-0.19367187 5.34761719 -0.09828125 4.19132812 0 3 C0 2.01 0 1.02 0 0 Z " fill="#200006" transform="translate(931,102)"/>
<path d="M0 0 C-0.144375 0.53625 -0.28875 1.0725 -0.4375 1.625 C-2.03206849 8.00428209 -2.03206849 8.00428209 0 14 C-0.375 16.25 -0.375 16.25 -1 18 C-0.34 18 0.32 18 1 18 C1 19.32 1 20.64 1 22 C-1.70879335 23.35439668 -4.00933268 23.06501451 -7 23 C-7.63166196 7.86350792 -7.63166196 7.86350792 -4 1 C-2 0 -2 0 0 0 Z " fill="#E01746" transform="translate(752,120)"/>
<path d="M0 0 C3.3 0 6.6 0 10 0 C10 3.96 10 7.92 10 12 C6.7 12 3.4 12 0 12 C0 8.04 0 4.08 0 0 Z " fill="#F7F7F5" transform="translate(78,34)"/>
<path d="M0 0 C0.33 0.66 0.66 1.32 1 2 C1.99 2.33 2.98 2.66 4 3 C3.67 17.85 3.34 32.7 3 48 C2.67 48 2.34 48 2 48 C1.98541748 46.76846191 1.97083496 45.53692383 1.95581055 44.26806641 C1.89794348 39.70933642 1.82071068 35.15110643 1.73754883 30.59277344 C1.70424472 28.61792094 1.67623003 26.642972 1.65356445 24.66796875 C1.62011878 21.83291423 1.56780954 18.998748 1.51171875 16.1640625 C1.50532883 15.27756012 1.4989389 14.39105774 1.49235535 13.47769165 C1.47256119 12.65699188 1.45276703 11.83629211 1.43237305 10.99072266 C1.42126999 10.26680328 1.41016693 9.54288391 1.39872742 8.79702759 C1.12509493 6.58351797 1.12509493 6.58351797 -2 5 C-2.99 5 -3.98 5 -5 5 C-5.66 4.34 -6.32 3.68 -7 3 C-3.375 0 -3.375 0 0 0 Z " fill="#C1183E" transform="translate(846,69)"/>
<path d="M0 0 C0.66 0.33 1.32 0.66 2 1 C2.33 1.99 2.66 2.98 3 4 C4.95597184 5.39712274 6.95436401 6.73779907 9 8 C7.48209259 12.25014075 4.93622829 13.95899274 1 16 C-1.76497381 16.31827037 -4.20236613 16.19294027 -7 16 C-7 15.01 -7 14.02 -7 13 C-4.66666667 13 -2.33333333 13 0 13 C0 11.68 0 10.36 0 9 C0 6 0 3 0 0 Z " fill="#E8204B" transform="translate(996,100)"/>
<path d="M0 0 C0.33 0 0.66 0 1 0 C1 3.3 1 6.6 1 10 C5.09305456 8.34703566 8.58983503 6.86453858 12 4 C11.34 5.98 10.68 7.96 10 10 C12.97 10.495 12.97 10.495 16 11 C12.7589629 13.49310546 9.5149613 15.9059805 6 18 C5.01 17.67 4.02 17.34 3 17 C3.66 15.35 4.32 13.7 5 12 C3.02 12 1.04 12 -1 12 C-0.67 8.04 -0.34 4.08 0 0 Z " fill="#CE143C" transform="translate(736,96)"/>
<path d="M0 0 C2 3 2 3 1.75 5.4375 C1.05282249 7.81952314 0.20252143 9.83546142 -1 12 C-1.66 12 -2.32 12 -3 12 C-2.7525 12.78375 -2.505 13.5675 -2.25 14.375 C-1.89865241 19.46954003 -3.6163532 23.5275037 -6 28 C-6.66 28.33 -7.32 28.66 -8 29 C-7.29964007 18.84478099 -4.78654664 9.01238354 0 0 Z " fill="#D51A3F" transform="translate(798,66)"/>
<path d="M0 0 C0.33 0.66 0.66 1.32 1 2 C0.34 2 -0.32 2 -1 2 C-1 2.99 -1 3.98 -1 5 C-0.32453125 4.62746094 0.3509375 4.25492187 1.046875 3.87109375 C1.93890625 3.39800781 2.8309375 2.92492187 3.75 2.4375 C4.63171875 1.96183594 5.5134375 1.48617187 6.421875 0.99609375 C9.20701188 -0.07998186 10.26980214 -0.06528748 13 1 C12.18208984 1.34611328 12.18208984 1.34611328 11.34765625 1.69921875 C7.17264008 3.50482404 3.22058213 5.41711424 -0.6875 7.75 C-4.27088461 9.80573117 -6.79472842 10.53913738 -11 10 C-11 8.68 -11 7.36 -11 6 C-10.18595703 5.60167969 -10.18595703 5.60167969 -9.35546875 5.1953125 C-8.64003906 4.84210938 -7.92460938 4.48890625 -7.1875 4.125 C-6.47980469 3.77695313 -5.77210938 3.42890625 -5.04296875 3.0703125 C-2.78753582 1.9343514 -2.78753582 1.9343514 0 0 Z " fill="#380108" transform="translate(893,97)"/>
<path d="M0 0 C0.33 0.66 0.66 1.32 1 2 C1.66 2 2.32 2 3 2 C1.07285135 6.90546929 -2.74414191 9.16276127 -7 12 C-8.57797036 13.35721803 -10.13932716 14.73388817 -11.6875 16.125 C-12.89986328 17.21167969 -12.89986328 17.21167969 -14.13671875 18.3203125 C-14.75160156 18.87460938 -15.36648438 19.42890625 -16 20 C-16.66 19.67 -17.32 19.34 -18 19 C-15.37550848 16.20785493 -12.75032011 13.41636599 -10.125 10.625 C-9.37863281 9.8309375 -8.63226562 9.036875 -7.86328125 8.21875 C-7.14785156 7.45820312 -6.43242188 6.69765625 -5.6953125 5.9140625 C-5.03547363 5.2123291 -4.37563477 4.5105957 -3.69580078 3.78759766 C-2.48176576 2.50784464 -1.24732691 1.24732691 0 0 Z " fill="#CC1C40" transform="translate(832,77)"/>
<path d="M0 0 C0.33 0 0.66 0 1 0 C1.125 6.75 1.125 6.75 0 9 C0.99 9.33 1.98 9.66 3 10 C0.06171403 12.50298434 -2.17902761 13.46930939 -6 14 C-6.33 14.99 -6.66 15.98 -7 17 C-7.66 14.69 -8.32 12.38 -9 10 C-8.01 10 -7.02 10 -6 10 C-4.33446878 7.77018131 -4.33446878 7.77018131 -2.875 5 C-1.93776843 3.3213763 -0.98480195 1.65116495 0 0 Z " fill="#AF1936" transform="translate(888,89)"/>
<path d="M0 0 C0.33 0.66 0.66 1.32 1 2 C0.21496094 2.03738281 -0.57007813 2.07476562 -1.37890625 2.11328125 C-7.66260085 2.50649404 -12.34751426 3.29151725 -18 6 C-22 6 -22 6 -25 4 C-16.54022812 0.13267571 -9.23805298 -0.48550351 0 0 Z " fill="#BA2447" transform="translate(770,57)"/>
<path d="M0 0 C0.66 0.66 1.32 1.32 2 2 C1.525625 2.556875 1.05125 3.11375 0.5625 3.6875 C-2.6227538 8.40167562 -2.09300653 13.5126145 -2 19 C-2.33 19 -2.66 19 -3 19 C-3.433125 17.576875 -3.433125 17.576875 -3.875 16.125 C-4.76825109 12.94788422 -4.76825109 12.94788422 -7 11 C-7.5625 8.75 -7.5625 8.75 -7 6 C-4.86238067 3.73444336 -2.4976288 1.8541071 0 0 Z " fill="#C61A40" transform="translate(983,59)"/>
<path d="M0 0 C-1.45855647 3.68646141 -3.30229045 5.16143971 -6.625 7.25 C-7.44226563 7.77078125 -8.25953125 8.2915625 -9.1015625 8.828125 C-10.04128906 9.40820312 -10.04128906 9.40820312 -11 10 C-11.66 9.34 -12.32 8.68 -13 8 C-9.28512894 2.90925077 -6.49189524 0 0 0 Z " fill="#DF1E48" transform="translate(747,62)"/>
<path d="M0 0 C0.33 0 0.66 0 1 0 C1 2.64 1 5.28 1 8 C2.65 8 4.3 8 6 8 C5.34 9.32 4.68 10.64 4 12 C5.32 12.66 6.64 13.32 8 14 C5.18185434 15.40907283 3.82722796 14.50872691 0.875 13.5625 C-0.03507813 13.27503906 -0.94515625 12.98757812 -1.8828125 12.69140625 C-2.58148437 12.46324219 -3.28015625 12.23507813 -4 12 C-3.01 11.67 -2.02 11.34 -1 11 C-1.01160156 10.37351562 -1.02320313 9.74703125 -1.03515625 9.1015625 C-1.04417969 8.28429687 -1.05320312 7.46703125 -1.0625 6.625 C-1.07410156 5.81289062 -1.08570313 5.00078125 -1.09765625 4.1640625 C-1 2 -1 2 0 0 Z " fill="#520412" transform="translate(950,79)"/>
<path d="M0 0 C-2.35996925 2.77643441 -5.12962594 4.31420364 -8.28125 6.03515625 C-9.90109552 6.94447862 -11.45436346 7.96957564 -13 9 C-13.66 8.67 -14.32 8.34 -15 8 C-12.18367291 0.8311674 -7.08091586 -1.38539658 0 0 Z " fill="#C11E42" transform="translate(814,58)"/>
<path d="M0 0 C0.99 0 1.98 0 3 0 C2.67 3.3 2.34 6.6 2 10 C1.34 8.68 0.68 7.36 0 6 C-0.33 5.67 -0.66 5.34 -1 5 C-3.02045442 5.60183749 -5.02111039 6.27306096 -7 7 C-7.33 7.66 -7.66 8.32 -8 9 C-8.99 9 -9.98 9 -11 9 C-9.6089997 5.52614061 -8.33695343 4.32405371 -4.9375 2.8125 C-2.26504211 1.70341129 -2.26504211 1.70341129 0 0 Z " fill="#A71D34" transform="translate(929,105)"/>
<path d="M0 0 C0 0.66 0 1.32 0 2 C-0.61875 2.04125 -1.2375 2.0825 -1.875 2.125 C-2.57625 2.41375 -3.2775 2.7025 -4 3 C-4.433125 4.36125 -4.433125 4.36125 -4.875 5.75 C-6.39275825 10.13463495 -8.21639982 11.37464477 -12 14 C-12.99 14 -13.98 14 -15 14 C-13.0412663 9.19219911 -5.63350629 0 0 0 Z " fill="#D02249" transform="translate(882,63)"/>
<path d="M0 0 C1 2 1 2 1 6 C1.66 6 2.32 6 3 6 C2.1875 7.9375 2.1875 7.9375 1 10 C0.01 10.33 -0.98 10.66 -2 11 C-2 14.96 -2 18.92 -2 23 C-4.75081774 17.49836452 -4.98585223 13.08185978 -3.1015625 7.19140625 C-2.12910569 4.76026422 -1.10905831 2.37160236 0 0 Z " fill="#A30E30" transform="translate(861,85)"/>
<path d="M0 0 C-0.80570696 3.49422385 -1.91791717 6.85317353 -3.0625 10.25 C-3.42472656 11.32765625 -3.78695312 12.4053125 -4.16015625 13.515625 C-4.43730469 14.33546875 -4.71445312 15.1553125 -5 16 C-5.33 16 -5.66 16 -6 16 C-6.38095238 5.1005291 -6.38095238 5.1005291 -4 1 C-2 0 -2 0 0 0 Z " fill="#D11D42" transform="translate(752,120)"/>
<path d="M0 0 C0.99 0.495 0.99 0.495 2 1 C2.33 1.99 2.66 2.98 3 4 C4.95597184 5.39712274 6.95436401 6.73779907 9 8 C7.95125002 10.62187494 7.35068687 11.79371361 4.875 13.25 C4.25625 13.4975 3.6375 13.745 3 14 C3.33 11.69 3.66 9.38 4 7 C3.01 6.67 2.02 6.34 1 6 C0.67 4.02 0.34 2.04 0 0 Z " fill="#D72B49" transform="translate(996,100)"/>
<path d="M0 0 C0.8897991 3.30496809 1.54753044 6.60647831 2 10 C1.67 10.33 1.34 10.66 1 11 C0.76924918 12.34747084 0.58846937 13.70377565 0.4375 15.0625 C0.293125 16.361875 0.14875 17.66125 0 19 C-0.66 18.67 -1.32 18.34 -2 18 C-2.054138 15.75026553 -2.09285491 13.50015617 -2.125 11.25 C-2.14820313 9.99703125 -2.17140625 8.7440625 -2.1953125 7.453125 C-2.01537302 4.27179508 -1.68998582 2.63478104 0 0 Z " fill="#B31234" transform="translate(789,96)"/>
<path d="M0 0 C2 3 2 3 1.75 5.4375 C1.03077869 7.89483948 0.40282328 9.85884867 -1 12 C-2.31348076 12.70497555 -3.6459319 13.37652442 -5 14 C-3.45730076 9.27934033 -1.92205381 4.58335908 0 0 Z " fill="#B61735" transform="translate(798,66)"/>
<path d="M0 0 C0.99 1.485 0.99 1.485 2 3 C1.34 3 0.68 3 0 3 C0 2.01 0 1.02 0 0 Z M-2.3125 2.375 C-1.549375 2.58125 -0.78625 2.7875 0 3 C-2.45919511 5.6348519 -4.57772411 7.74516551 -8 9 C-8.66 8.67 -9.32 8.34 -10 8 C-8.33862914 4.16606724 -6.90285464 1.7344854 -2.3125 2.375 Z " fill="#DD2348" transform="translate(843,71)"/>
<path d="M0 0 C-0.66 0 -1.32 0 -2 0 C-1.67 1.65 -1.34 3.3 -1 5 C-3.64 5 -6.28 5 -9 5 C-9 3.35 -9 1.7 -9 0 C-3.375 -1.125 -3.375 -1.125 0 0 Z " fill="#F2F1EE" transform="translate(491,61)"/>
<path d="M0 0 C0.33 0.99 0.66 1.98 1 3 C0.01 4.485 0.01 4.485 -1 6 C-1.33 6.99 -1.66 7.98 -2 9 C-3.98 9.33 -5.96 9.66 -8 10 C-6.34908222 5.70761377 -3.26245434 3.1206085 0 0 Z " fill="#CA143B" transform="translate(756,90)"/>
<path d="M0 0 C0.99 0 1.98 0 3 0 C3.12375 0.969375 3.2475 1.93875 3.375 2.9375 C3.58125 3.948125 3.7875 4.95875 4 6 C4.66 6.33 5.32 6.66 6 7 C6 8.65 6 10.3 6 12 C6.66 12 7.32 12 8 12 C8 13.65 8 15.3 8 17 C4.37307298 15.18653649 3.39698535 10.65078837 2 7 C1.65334443 5.33605325 1.31323028 3.67056149 1 2 C0.34 1.67 -0.32 1.34 -1 1 C-0.67 0.67 -0.34 0.34 0 0 Z " fill="#A00F2D" transform="translate(824,100)"/>
<path d="M0 0 C0 0.99 0 1.98 0 3 C-1.216875 2.9175 -2.43375 2.835 -3.6875 2.75 C-7.16639526 2.72528316 -7.93832664 2.95888443 -11 5 C-11.66 5.66 -12.32 6.32 -13 7 C-13.66 6.67 -14.32 6.34 -15 6 C-9.96191995 1.60313014 -6.79670193 -0.84958774 0 0 Z " fill="#C82B4C" transform="translate(1009,34)"/>
<path d="M0 0 C-0.6875 1.875 -0.6875 1.875 -2 4 C-4.5 5.125 -4.5 5.125 -7 6 C-7.66 6.66 -8.32 7.32 -9 8 C-11.125 7.625 -11.125 7.625 -13 7 C-11.21190303 5.82786955 -9.41940875 4.66244474 -7.625 3.5 C-6.62726562 2.8503125 -5.62953125 2.200625 -4.6015625 1.53125 C-2 0 -2 0 0 0 Z " fill="#BF2544" transform="translate(942,60)"/>
<path d="M0 0 C0.05399736 1.45792884 0.09279177 2.91642712 0.125 4.375 C0.14820313 5.18710938 0.17140625 5.99921875 0.1953125 6.8359375 C0 9 0 9 -2 11 C-2.33 8.69 -2.66 6.38 -3 4 C-4.65 4.33 -6.3 4.66 -8 5 C-3.16129032 0 -3.16129032 0 0 0 Z " fill="#55060F" transform="translate(752,108)"/>
<path d="M0 0 C0.33 0.66 0.66 1.32 1 2 C1.99 2.33 2.98 2.66 4 3 C3.360625 3.268125 2.72125 3.53625 2.0625 3.8125 C-0.33131686 4.88667752 -0.33131686 4.88667752 -1 8 C-3.0625 8.6875 -3.0625 8.6875 -5 9 C-3.7508258 5.54074837 -2.32472205 2.85306797 0 0 Z " fill="#C71A3D" transform="translate(923,73)"/>
<path d="M0 0 C0.33 0 0.66 0 1 0 C1 2.97 1 5.94 1 9 C2.32 8.67 3.64 8.34 5 8 C5.99 10.31 6.98 12.62 8 15 C5.02936683 13.62077746 2.40281511 12.24262744 0 10 C-0.390625 7.51953125 -0.390625 7.51953125 -0.25 4.8125 C-0.21390625 3.91144531 -0.1778125 3.01039062 -0.140625 2.08203125 C-0.07101562 1.05142578 -0.07101562 1.05142578 0 0 Z " fill="#BC1737" transform="translate(917,84)"/>
<path d="M0 0 C1.1875 1.625 1.1875 1.625 2 4 C0.625 7.25 0.625 7.25 -1 10 C-1.99 9.67 -2.98 9.34 -4 9 C-3.46930939 5.17902761 -2.50298434 2.93828597 0 0 Z " fill="#CA1A43" transform="translate(866,77)"/>
<path d="M0 0 C0.99 0 1.98 0 3 0 C2.53199289 4.05606165 2.12046792 7.46588679 0 11 C-0.66 11 -1.32 11 -2 11 C-1.85957123 9.35369672 -1.71250671 7.70795821 -1.5625 6.0625 C-1.48128906 5.14597656 -1.40007813 4.22945313 -1.31640625 3.28515625 C-1 1 -1 1 0 0 Z " fill="#D81F4A" transform="translate(882,68)"/>
<path d="M0 0 C5.94 0.99 5.94 0.99 12 2 C12 2.66 12 3.32 12 4 C10.56344146 4.08131463 9.1255517 4.13933559 7.6875 4.1875 C6.48673828 4.23970703 6.48673828 4.23970703 5.26171875 4.29296875 C2.51075586 3.93662641 1.67775411 3.15556111 0 1 C0 0.67 0 0.34 0 0 Z " fill="#E72152" transform="translate(831,114)"/>
<path d="M0 0 C0.99 0.33 1.98 0.66 3 1 C0.21000549 4.48749314 -2.25235831 7.50157221 -6 10 C-6.66 9.67 -7.32 9.34 -8 9 C-5.36 6.03 -2.72 3.06 0 0 Z " fill="#B61035" transform="translate(822,87)"/>
<path d="M0 0 C1.43088528 2.86177057 0.59991697 4.93375773 0 8 C0.66 8 1.32 8 2 8 C2 8.99 2 9.98 2 11 C1.01 11.33 0.02 11.66 -1 12 C-2.50934217 8.98131566 -2.17510672 6.32702771 -2 3 C-1.34 2.01 -0.68 1.02 0 0 Z " fill="#A5152B" transform="translate(760,75)"/>
<path d="M0 0 C0.144375 0.61875 0.28875 1.2375 0.4375 1.875 C0.93152225 4.03258322 0.93152225 4.03258322 2 6 C0.68 7.98 -0.64 9.96 -2 12 C-3.12377697 8.69564916 -2.89554742 6.9493138 -1.5625 3.75 C-1.27503906 3.04359375 -0.98757813 2.3371875 -0.69140625 1.609375 C-0.46324219 1.07828125 -0.23507812 0.5471875 0 0 Z " fill="#BE1939" transform="translate(720,85)"/>
<path d="M0 0 C0.66 0.33 1.32 0.66 2 1 C2.08096803 2.45742463 2.13917774 3.91612807 2.1875 5.375 C2.22230469 6.18710938 2.25710938 6.99921875 2.29296875 7.8359375 C2.19628906 8.55007812 2.09960938 9.26421875 2 10 C1.01 10.66 0.02 11.32 -1 12 C-0.67 8.04 -0.34 4.08 0 0 Z " fill="#A90E31" transform="translate(776,62)"/>
<path d="M0 0 C-2.06185207 3.0927781 -2.90369802 3.68076198 -6.125 5.1875 C-7.21167969 5.70376953 -7.21167969 5.70376953 -8.3203125 6.23046875 C-8.87460937 6.48441406 -9.42890625 6.73835938 -10 7 C-10 6.01 -10 5.02 -10 4 C-8.57421875 2.578125 -8.57421875 2.578125 -6.6875 1.25 C-6.07261719 0.80140625 -5.45773437 0.3528125 -4.82421875 -0.109375 C-3 -1 -3 -1 0 0 Z " fill="#E91F4C" transform="translate(1004,37)"/>
<path d="M0 0 C-1.28519565 2.86697492 -2.57129254 4.97607712 -5 7 C-5.66 7 -6.32 7 -7 7 C-6.22006468 2.47637516 -4.81844319 0 0 0 Z " fill="#D9274B" transform="translate(931,68)"/>
<path d="M0 0 C1.32 0.99 2.64 1.98 4 3 C2.1875 5.5 2.1875 5.5 0 8 C-0.99 8 -1.98 8 -3 8 C-2.690625 7.236875 -2.38125 6.47375 -2.0625 5.6875 C-1.32106407 3.81210323 -0.63771783 1.91315348 0 0 Z " fill="#D3153E" transform="translate(993,41)"/>
<path d="M0 0 C1.45047396 2.90094791 0.45356803 4.55972596 -0.4375 7.625 C-0.72496094 8.62789062 -1.01242187 9.63078125 -1.30859375 10.6640625 C-1.53675781 11.43492188 -1.76492188 12.20578125 -2 13 C-1.01 13.33 -0.02 13.66 1 14 C-0.32 14 -1.64 14 -3 14 C-3.29341888 8.32723489 -3.00559652 5.00932754 0 0 Z " fill="#5C050E" transform="translate(813,83)"/>
<path d="M0 0 C2.475 0.99 2.475 0.99 5 2 C4.67 4.31 4.34 6.62 4 9 C3.896875 8.360625 3.79375 7.72125 3.6875 7.0625 C3.460625 6.381875 3.23375 5.70125 3 5 C2.01 4.67 1.02 4.34 0 4 C0 2.68 0 1.36 0 0 Z " fill="#DA1C3F" transform="translate(1007,59)"/>
<path d="M0 0 C0.33 0.99 0.66 1.98 1 3 C-0.65 4.32 -2.3 5.64 -4 7 C-4 6.34 -4 5.68 -4 5 C-5.65 5 -7.3 5 -9 5 C-9 4.67 -9 4.34 -9 4 C-7.6078125 3.566875 -7.6078125 3.566875 -6.1875 3.125 C-2.90208333 2.1125 -2.90208333 2.1125 0 0 Z " fill="#BA193E" transform="translate(941,118)"/>
<path d="M0 0 C0.66 0 1.32 0 2 0 C2 1.65 2 3.3 2 5 C0.35 5.66 -1.3 6.32 -3 7 C-1.125 1.125 -1.125 1.125 0 0 Z " fill="#E51F49" transform="translate(1008,64)"/>
<path d="M0 0 C5.53846154 -0.36923077 5.53846154 -0.36923077 7.875 1.5 C8.24625 1.995 8.6175 2.49 9 3 C8.67 3.66 8.34 4.32 8 5 C4.62496331 3.8141763 2.35277269 2.72426311 0 0 Z " fill="#E12751" transform="translate(809,59)"/>
<path d="M0 0 C0 1.65 0 3.3 0 5 C-0.33 3.68 -0.66 2.36 -1 1 C-2.32 1.33 -3.64 1.66 -5 2 C-5 2.66 -5 3.32 -5 4 C-6.65 4 -8.3 4 -10 4 C-6.83527002 0.53386716 -4.79371499 0 0 0 Z " fill="#AB1A35" transform="translate(907,98)"/>
<path d="M0 0 C0.66 0.33 1.32 0.66 2 1 C-0.64 3.64 -3.28 6.28 -6 9 C-6.33 8.34 -6.66 7.68 -7 7 C-4.78071806 4.09197539 -3.07030857 2.04687238 0 0 Z " fill="#282728" transform="translate(126,69)"/>
<path d="M0 0 C0.99 0 1.98 0 3 0 C2.34 4.62 1.68 9.24 1 14 C0.67 14 0.34 14 0 14 C0 9.38 0 4.76 0 0 Z " fill="#971229" transform="translate(1005,44)"/>
<path d="M0 0 C4.08718695 -0.24042276 7.17679443 0.57741188 11 2 C11 2.33 11 2.66 11 3 C9.54176788 3.0270043 8.08339325 3.04639787 6.625 3.0625 C5.81289063 3.07410156 5.00078125 3.08570312 4.1640625 3.09765625 C2 3 2 3 0 2 C0 1.34 0 0.68 0 0 Z " fill="#C2173C" transform="translate(983,114)"/>
<path d="M0 0 C0.66 0.33 1.32 0.66 2 1 C1.67 1.33 1.34 1.66 1 2 C2.32 2.66 3.64 3.32 5 4 C4 5 4 5 0.9375 5.0625 C-0.5165625 5.0315625 -0.5165625 5.0315625 -2 5 C-2 3.68 -2 2.36 -2 1 C-1.34 0.67 -0.68 0.34 0 0 Z " fill="#530411" transform="translate(884,102)"/>
<path d="M0 0 C2.31 1.98 4.62 3.96 7 6 C6.34 6.66 5.68 7.32 5 8 C3.02 5.69 1.04 3.38 -1 1 C-0.67 0.67 -0.34 0.34 0 0 Z " fill="#131215" transform="translate(302,63)"/>
<path d="M0 0 C2.31 0 4.62 0 7 0 C7 0.66 7 1.32 7 2 C4.69 2.33 2.38 2.66 0 3 C0 2.01 0 1.02 0 0 Z " fill="#E42555" transform="translate(746,140)"/>
<path d="M0 0 C0.99 0.495 0.99 0.495 2 1 C2.33 1.99 2.66 2.98 3 4 C4.99665314 5.68538601 4.99665314 5.68538601 7 7 C6.01 7.33 5.02 7.66 4 8 C2 6.25 2 6.25 0 4 C0 2.68 0 1.36 0 0 Z " fill="#C41E3E" transform="translate(996,100)"/>
<path d="M0 0 C0 2.8996083 -0.21438138 5.21462489 -1 8 C-1.99 8.66 -2.98 9.32 -4 10 C-4 6.25763057 -2.71559825 2.71559825 0 0 Z " fill="#D41B3E" transform="translate(759,87)"/>
<path d="M0 0 C0.33 0.99 0.66 1.98 1 3 C0.01 3 -0.98 3 -2 3 C-2.33 3.66 -2.66 4.32 -3 5 C-4.32 4.34 -5.64 3.68 -7 3 C-3.375 0 -3.375 0 0 0 Z " fill="#C02E45" transform="translate(846,69)"/>
<path d="M0 0 C0.99 0.33 1.98 0.66 3 1 C0.75 3.0625 0.75 3.0625 -2 5 C-4.3125 4.75 -4.3125 4.75 -6 4 C-3.1875 1.9375 -3.1875 1.9375 0 0 Z " fill="#C41E40" transform="translate(743,62)"/>
<path d="M0 0 C1.21236328 0.01353516 1.21236328 0.01353516 2.44921875 0.02734375 C3.37154297 0.04474609 3.37154297 0.04474609 4.3125 0.0625 C4.3125 0.3925 4.3125 0.7225 4.3125 1.0625 C-4.11607143 3.34821429 -4.11607143 3.34821429 -8.6875 3.0625 C-6.88341097 -0.54567807 -3.60175697 -0.05219938 0 0 Z " fill="#B12140" transform="translate(893.6875,57.9375)"/>
<path d="M0 0 C0.33 0 0.66 0 1 0 C1.25 2.3125 1.25 2.3125 1 5 C-1 6.8125 -1 6.8125 -3 8 C-3.66 7.67 -4.32 7.34 -5 7 C-4.19152271 5.83054208 -3.37810888 4.66449539 -2.5625 3.5 C-2.11003906 2.8503125 -1.65757812 2.200625 -1.19140625 1.53125 C-0.79824219 1.0259375 -0.40507813 0.520625 0 0 Z " fill="#C21F3B" transform="translate(989,51)"/>
<path d="M0 0 C2.76276177 0.52268466 5.3260876 1.10869587 8 2 C8 2.99 8 3.98 8 5 C4.62496331 3.8141763 2.35277269 2.72426311 0 0 Z " fill="#CD1D4A" transform="translate(860,112)"/>
<path d="M0 0 C0 0.66 0 1.32 0 2 C-1.32 2.33 -2.64 2.66 -4 3 C-4 3.66 -4 4.32 -4 5 C-5.65 5 -7.3 5 -9 5 C-6.45523312 2.20075644 -3.92372883 0 0 0 Z " fill="#BD1231" transform="translate(897,102)"/>
<path d="M0 0 C0.66 0 1.32 0 2 0 C1.50168276 3.68754757 0.89932357 5.60490662 -2 8 C-1.125 1.125 -1.125 1.125 0 0 Z " fill="#E41E4E" transform="translate(862,86)"/>
<path d="M0 0 C0.66 0 1.32 0 2 0 C1.69381595 3.67420866 1.24228216 4.78135513 -1.5625 7.3125 C-2.366875 7.869375 -3.17125 8.42625 -4 9 C-3.71125 8.443125 -3.4225 7.88625 -3.125 7.3125 C-1.9586747 4.91505355 -0.9660119 2.48403061 0 0 Z " fill="#D2204C" transform="translate(962,76)"/>
<path d="M0 0 C0 1.65 0 3.3 0 5 C-1.32 4.67 -2.64 4.34 -4 4 C-4 3.01 -4 2.02 -4 1 C-2 0 -2 0 0 0 Z " fill="#CE2E4C" transform="translate(906,99)"/>
<path d="M0 0 C0.33 0.99 0.66 1.98 1 3 C-0.65 4.32 -2.3 5.64 -4 7 C-4.66 6.67 -5.32 6.34 -6 6 C-4.02 4.02 -2.04 2.04 0 0 Z " fill="#A81534" transform="translate(756,90)"/>
<path d="M0 0 C0.66 0.66 1.32 1.32 2 2 C0.6875 4 0.6875 4 -1 6 C-1.99 6 -2.98 6 -4 6 C-4 4.35 -4 2.7 -4 1 C-3.67 1.99 -3.34 2.98 -3 4 C-2.34 4 -1.68 4 -1 4 C-0.67 2.68 -0.34 1.36 0 0 Z " fill="#333036" transform="translate(593,61)"/>
</svg>
